<svg width="321" height="429" viewBox="0 0 321 429" fill="none" xmlns="http://www.w3.org/2000/svg">
<path d="M320.888 428.731C320.888 428.876 249.049 429 160.46 429C71.8706 429 0 428.876 0 428.731C0 428.586 71.8292 428.462 160.46 428.462C249.09 428.462 320.888 428.597 320.888 428.731Z" fill="#263238"/>
<path d="M250.89 302.081C234.906 290.918 231.285 270.196 231.916 251.563C232.02 248.46 231.679 245.17 233.158 242.449C234.637 239.728 238.093 237.855 240.876 239.159C243.183 240.245 244.186 242.935 245.48 245.159C247.205 248.122 249.734 250.536 252.773 252.122C254.749 253.156 257.201 253.777 259.156 252.701C261.846 251.222 262.157 247.528 262.136 244.425C262.136 238.652 262.101 232.886 262.032 227.127C261.847 224.035 262.161 220.932 262.964 217.94C263.926 215.002 266.067 212.281 268.995 211.454C271.923 210.626 275.575 212.333 276.237 215.354C276.351 216.633 276.382 217.919 276.33 219.202C276.413 220.496 277.013 221.913 278.223 222.306C279.434 222.699 280.696 221.799 281.627 220.889C284.813 217.785 286.986 213.74 289.003 209.746C291.021 205.753 292.997 201.646 295.893 198.242C298.79 194.839 302.794 192.138 307.274 191.88C311.753 191.621 316.419 194.373 317.536 198.718C318.654 203.063 316.119 207.501 313.398 211.029C309.292 216.266 304.452 220.883 299.028 224.737C297.969 225.315 297.124 226.218 296.618 227.313C295.945 229.382 297.9 231.451 299.939 232.103C302.246 232.869 304.749 232.631 307.18 232.921C309.612 233.21 312.198 234.265 313.119 236.541C314.381 239.707 311.733 243.018 309.136 245.19C303.922 249.536 298.001 252.954 291.631 255.298C289.355 256.126 286.965 256.86 285.124 258.453C283.282 260.047 282.186 262.83 283.293 265.012C284.4 267.195 287.245 267.889 289.634 267.444C292.024 266.999 294.145 265.716 296.421 264.857C300.673 263.254 306.156 263.543 308.836 267.216C309.666 268.481 310.191 269.922 310.371 271.424C310.55 272.927 310.379 274.45 309.87 275.875C308.835 278.711 307.241 281.311 305.184 283.521C298.408 291.616 289.604 297.768 279.672 301.346C269.812 304.76 260.677 305.691 250.88 302.101" fill="#4CAF4F"/>
<path d="M312.984 194.435C312.984 194.435 312.891 194.539 312.684 194.725L311.764 195.542C310.957 196.266 309.767 197.321 308.267 198.718C304.014 202.667 300.064 206.931 296.452 211.474C294.145 214.34 291.755 217.588 289.21 221.116C286.665 224.644 284.037 228.451 281.43 232.496C278.651 236.762 276.106 241.176 273.806 245.718C272.606 248.087 271.55 250.56 270.464 253.084L267.257 260.791C263.03 270.5 259.348 280.437 256.229 290.556C253.716 298.835 251.984 307.331 251.056 315.933C250.454 321.739 250.357 327.585 250.766 333.407C250.932 335.476 251.087 337.059 251.232 338.135C251.294 338.652 251.335 339.066 251.377 339.366V339.79C251.332 339.656 251.301 339.517 251.283 339.376C251.232 339.076 251.17 338.673 251.087 338.156C250.901 337.121 250.704 335.486 250.518 333.417C250.019 327.585 250.053 321.718 250.621 315.892C251.492 307.253 253.186 298.717 255.68 290.401C258.773 280.253 262.445 270.291 266.678 260.564L269.967 252.887C271.054 250.374 272.119 247.88 273.33 245.501C275.646 240.945 278.212 236.52 281.017 232.248C283.665 228.11 286.334 224.365 288.848 220.868C291.362 217.371 293.793 214.102 296.09 211.247C299.739 206.716 303.741 202.481 308.06 198.584C309.591 197.208 310.812 196.173 311.639 195.48L312.602 194.704C312.719 194.601 312.848 194.511 312.984 194.435Z" fill="#263238"/>
<path d="M273.464 245.48C273.318 245.054 273.218 244.613 273.164 244.166C272.999 243.307 272.813 242.097 272.595 240.525C272.15 237.421 271.695 233.169 271.209 228.462C270.723 223.754 270.174 219.492 269.719 216.419C269.481 214.888 269.274 213.657 269.129 212.798C269.016 212.359 268.957 211.907 268.954 211.454C269.132 211.868 269.26 212.302 269.336 212.747C269.564 213.595 269.823 214.816 270.112 216.357C270.702 219.461 271.281 223.682 271.768 228.4C272.254 233.117 272.668 237.255 272.988 240.473C273.144 241.921 273.278 243.152 273.382 244.135C273.462 244.579 273.49 245.03 273.464 245.48Z" fill="#263238"/>
<path d="M313.274 238.052C312.771 238.162 312.258 238.224 311.743 238.238C310.708 238.331 309.239 238.455 307.418 238.662C303.777 239.055 298.77 239.78 293.276 240.814C287.783 241.849 282.848 243.018 279.299 243.918C277.53 244.373 276.102 244.787 275.161 245.066C274.658 245.245 274.138 245.37 273.609 245.439C274.087 245.198 274.586 245.001 275.099 244.849C276.071 244.508 277.478 244.032 279.237 243.525C282.765 242.49 287.7 241.259 293.214 240.204C297.885 239.311 302.598 238.655 307.336 238.238C309.167 238.083 310.646 238.021 311.681 238C312.212 237.964 312.746 237.981 313.274 238.052Z" fill="#263238"/>
<path d="M256.187 289.676C256.077 289.527 255.987 289.363 255.918 289.19L255.235 287.752C254.646 286.5 253.849 284.648 252.897 282.383C250.973 277.831 248.521 271.458 245.914 264.381C243.307 257.305 240.907 250.932 239.086 246.328C238.196 244.094 237.462 242.263 236.913 240.897L236.334 239.418C236.254 239.247 236.198 239.066 236.169 238.88C236.279 239.029 236.369 239.193 236.438 239.366L237.12 240.804C237.7 242.056 238.507 243.908 239.458 246.173C241.383 250.725 243.835 257.098 246.442 264.174C249.049 271.251 251.449 277.624 253.27 282.227C254.159 284.462 254.894 286.293 255.432 287.659C255.67 288.249 255.867 288.693 256.022 289.138C256.102 289.309 256.158 289.49 256.187 289.676Z" fill="#263238"/>
<path d="M309.032 272.637C308.867 272.732 308.689 272.805 308.505 272.854L306.974 273.372L301.315 275.203C296.535 276.755 289.934 278.969 282.693 281.41C275.451 283.852 268.819 286.024 264.008 287.473C261.608 288.207 259.653 288.766 258.298 289.138L256.736 289.542C256.554 289.6 256.367 289.638 256.177 289.656C256.343 289.561 256.52 289.487 256.704 289.438L258.236 288.921L263.895 287.09C268.674 285.538 275.275 283.324 282.517 280.883C289.759 278.441 296.38 276.268 301.19 274.82C303.601 274.086 305.546 273.527 306.911 273.154L308.474 272.751C308.655 272.693 308.843 272.655 309.032 272.637Z" fill="#263238"/>
<path d="M287.472 21.6848L282.144 23.5884L279.858 16.6259C275.657 3.78702 262.27 -3.0307 249.969 1.30409C237.669 5.63888 231.12 19.7192 235.32 32.558L237.607 39.5206L232.258 41.4345C230.218 42.2256 228.562 43.7722 227.633 45.7529C226.705 47.7336 226.575 49.9959 227.271 52.0698L242.096 97.373C242.404 98.3996 242.915 99.3539 243.599 100.179C244.283 101.004 245.126 101.684 246.077 102.177C247.029 102.67 248.07 102.967 249.138 103.05C250.207 103.133 251.281 103 252.297 102.66L307.511 82.9099C309.578 82.1202 311.258 80.5599 312.197 78.5571C313.137 76.5543 313.263 74.2652 312.55 72.1712L297.714 26.868C297.399 25.8442 296.88 24.8946 296.189 24.0757C295.498 23.2568 294.65 22.5855 293.694 22.1017C292.738 21.618 291.694 21.3318 290.625 21.2601C289.556 21.1885 288.484 21.333 287.472 21.6848ZM245.386 28.9267C244.254 25.5884 244.457 21.9414 245.954 18.7497C247.45 15.5579 250.124 13.0692 253.415 11.8048C255.039 11.2489 256.76 11.026 258.473 11.1493C260.185 11.2727 261.856 11.7398 263.384 12.5229C264.913 13.3059 266.268 14.3888 267.369 15.707C268.47 17.0251 269.294 18.5515 269.792 20.1951L272.068 27.1576L247.662 35.8893L245.386 28.9267ZM276.423 69.1296L280.21 80.6959C280.279 80.9278 280.257 81.1776 280.147 81.3934C280.037 81.6092 279.848 81.7744 279.62 81.8546L274.313 83.7479C274.101 83.8064 273.876 83.781 273.683 83.6768C273.49 83.5727 273.345 83.3979 273.278 83.1892L269.461 71.6746C267.356 71.5599 265.336 70.8049 263.672 69.5107C262.008 68.2164 260.779 66.4447 260.15 64.4327C259.25 61.7728 259.414 58.8679 260.608 56.3263C261.801 53.7847 263.932 51.8034 266.553 50.7973C267.848 50.355 269.218 50.1779 270.582 50.2764C271.946 50.375 273.277 50.7472 274.494 51.3708C275.712 51.9945 276.791 52.8568 277.668 53.9065C278.545 54.9561 279.202 56.1716 279.599 57.4805C280.265 59.5243 280.32 61.7179 279.758 63.7925C279.195 65.8671 278.04 67.7327 276.433 69.1606L276.423 69.1296Z" fill="#4CAF4F"/>
<path d="M281.906 23.4643C281.906 23.6091 272.026 27.3232 259.736 31.7407C247.445 36.1583 237.42 39.7068 237.369 39.6034C237.317 39.4999 247.249 35.7548 259.549 31.3269C271.85 26.899 281.854 23.3298 281.906 23.4643Z" fill="#263238"/>
<path d="M293.638 25.3679C293.684 25.4577 293.722 25.5511 293.752 25.6472C293.835 25.8541 293.928 26.1231 294.052 26.4542C294.321 27.2094 294.693 28.2543 295.159 29.5578L299.132 41.1242C300.787 46.028 302.763 51.8422 304.956 58.2978C305.991 61.536 307.211 64.9086 308.349 68.4571C308.959 70.2858 309.222 72.2119 309.125 74.1368C309.038 75.138 308.753 76.1119 308.287 77.0026C307.79 77.8903 307.126 78.6736 306.332 79.3096C304.734 80.4764 302.96 81.3809 301.077 81.9891L295.749 83.9031L285.662 87.5137L268.581 93.5969L257.046 97.6523L253.942 98.6869L253.114 98.9558C253.026 98.9952 252.932 99.0197 252.835 99.0283C252.835 99.0283 252.918 99.0283 253.094 98.9041L253.901 98.5834L257.004 97.4144L268.478 93.1934L285.527 86.986L295.593 83.3444L300.921 81.4201C302.751 80.8366 304.474 79.9596 306.022 78.8234C306.761 78.2332 307.379 77.5061 307.843 76.6819C308.281 75.8581 308.545 74.9531 308.618 74.023C308.714 72.1683 308.461 70.3121 307.874 68.5502C306.756 65.0328 305.577 61.6291 304.511 58.3909C302.359 51.9249 300.373 46.09 298.8 41.1862C297.228 36.2824 295.904 32.3408 294.993 29.5682C294.559 28.2129 294.228 27.1577 293.959 26.3921L293.711 25.5644C293.679 25.5017 293.655 25.4358 293.638 25.3679Z" fill="#263238"/>
<path d="M264.505 11.1013C264.505 11.1013 263.957 10.8324 262.943 10.4185C261.498 9.86325 259.969 9.55547 258.422 9.50812C256.128 9.42947 253.846 9.86054 251.739 10.7703C249.176 11.9031 246.986 13.7354 245.417 16.0569C243.839 18.3717 242.992 21.1073 242.986 23.9091C243.008 26.2056 243.356 28.4872 244.021 30.6855C244.559 32.5684 245.117 34.0685 245.49 35.1134C245.71 35.6441 245.889 36.1905 246.028 36.748C245.734 36.2518 245.488 35.7287 245.293 35.1858C244.869 34.1513 244.259 32.6822 243.659 30.7889C242.922 28.5676 242.521 26.2488 242.469 23.9091C242.441 21.0014 243.308 18.1555 244.952 15.7568C246.575 13.3506 248.855 11.4616 251.521 10.3151C253.694 9.40035 256.048 8.99685 258.401 9.13568C259.982 9.21625 261.535 9.58436 262.984 10.222C263.372 10.4007 263.745 10.6082 264.102 10.8427C264.249 10.9073 264.385 10.9946 264.505 11.1013Z" fill="#263238"/>
<path d="M264.981 51.5835C265.146 51.4835 265.319 51.397 265.498 51.3249C266.016 51.0912 266.552 50.9009 267.102 50.7559C267.974 50.4985 268.873 50.3457 269.781 50.3007C271.016 50.2343 272.252 50.4209 273.413 50.849C276.061 51.7801 278.492 54.4803 279.692 58.0909C280.268 60.0285 280.268 62.0916 279.692 64.0292C279.054 66.1323 277.91 68.0468 276.361 69.6055L276.423 69.3262C277.799 73.1023 279.299 77.1991 280.851 81.4719L280.944 81.7305L280.685 81.8236L278.316 82.6099L273.144 84.3376L272.885 84.4203L272.802 84.1617C271.385 79.8786 269.833 75.8853 268.664 71.9643L268.891 72.1402C266.869 71.9722 264.941 71.213 263.346 69.9572C261.904 68.8463 260.721 67.434 259.881 65.819C259.122 64.3868 258.744 62.7837 258.784 61.1635C258.832 59.5077 259.245 57.8829 259.995 56.4055C260.744 54.9282 261.811 53.6348 263.119 52.6181C263.657 52.1811 264.261 51.8319 264.908 51.5835C264.324 51.9303 263.758 52.3066 263.212 52.7112C261.775 53.9266 260.674 55.4904 260.015 57.2529C259.449 58.5819 259.184 60.0198 259.24 61.4633C259.295 62.9068 259.669 64.3201 260.336 65.6018C261.162 67.1554 262.317 68.511 263.719 69.5745C265.24 70.7681 267.078 71.4877 269.005 71.6436H269.181L269.233 71.7988C270.371 75.6473 271.933 79.6717 273.371 83.9755L273.03 83.81L278.203 82.0822L280.561 81.2856L280.396 81.6374C278.854 77.3647 277.365 73.2575 275.999 69.4813V69.3262L276.123 69.202C277.627 67.708 278.749 65.8732 279.392 63.8534C279.941 61.9999 279.941 60.0271 279.392 58.1736C278.265 54.6975 275.937 52.0594 273.413 51.1283C272.295 50.6975 271.102 50.4969 269.905 50.5386C269.012 50.5591 268.123 50.6806 267.257 50.9007C265.715 51.2835 264.991 51.6353 264.981 51.5835Z" fill="#263238"/>
<path d="M233.003 350.301L129.661 349.825C123.693 349.793 117.982 347.392 113.783 343.152C109.583 338.912 107.238 333.178 107.263 327.21L108.359 68.1468C108.372 65.1901 108.966 62.2647 110.11 59.538C111.253 56.8113 112.923 54.3367 115.023 52.2556C117.123 50.1745 119.613 48.5277 122.35 47.4095C125.087 46.2912 128.018 45.7233 130.975 45.7383L234.306 46.2142C240.274 46.2443 245.986 48.6418 250.188 52.8802C254.389 57.1186 256.737 62.8513 256.715 68.8192L255.618 327.872C255.606 330.83 255.011 333.756 253.868 336.484C252.725 339.212 251.056 341.688 248.956 343.771C246.856 345.853 244.366 347.502 241.629 348.623C238.892 349.743 235.96 350.314 233.003 350.301Z" fill="#455A64"/>
<path d="M234.151 55.1217H214.122C213.469 55.1338 212.824 55.2746 212.225 55.5359C211.626 55.7972 211.084 56.174 210.63 56.6448C210.177 57.1155 209.821 57.671 209.582 58.2795C209.343 58.888 209.227 59.5375 209.239 60.191V63.8223C209.251 64.4753 209.135 65.1244 208.896 65.7323C208.657 66.3401 208.301 66.8949 207.847 67.3649C207.393 67.8348 206.852 68.2106 206.252 68.4708C205.653 68.731 205.009 68.8705 204.356 68.8813L165.312 68.7054C163.991 68.6702 162.738 68.1122 161.828 67.154C160.919 66.1957 160.426 64.9156 160.46 63.5947V59.9634C160.493 58.6443 160.002 57.3657 159.095 56.4077C158.187 55.4498 156.937 54.8906 155.618 54.8527H148.573L131.037 54.77C126.866 54.7451 122.855 56.374 119.883 59.3C116.91 62.226 115.218 66.2106 115.177 70.3814L114.143 323.248C114.133 325.317 114.531 327.368 115.314 329.283C116.097 331.198 117.25 332.94 118.706 334.41C120.163 335.88 121.894 337.049 123.802 337.849C125.71 338.65 127.757 339.067 129.826 339.076L232.951 339.552C235.022 339.562 237.074 339.163 238.99 338.38C240.907 337.596 242.65 336.443 244.121 334.986C245.592 333.528 246.761 331.795 247.562 329.886C248.363 327.977 248.781 325.929 248.79 323.858L249.825 70.9918C249.849 66.8092 248.212 62.788 245.273 59.8121C242.334 56.8361 238.334 55.1491 234.151 55.1217Z" fill="white"/>
<path d="M220.278 305.815L143.596 305.484C142.8 305.484 142.158 304.615 142.169 303.56L142.251 283.5C142.251 282.465 142.903 281.576 143.7 281.576L220.381 281.927C220.823 282.004 221.217 282.248 221.483 282.608C221.749 282.969 221.866 283.418 221.809 283.862L221.736 303.901C221.736 304.967 221.074 305.826 220.278 305.815Z" fill="#4CAF4F"/>
<path d="M166.91 295.593C166.487 295.593 166.08 295.525 165.69 295.389C165.304 295.248 165.006 295.069 164.794 294.852L165.03 294.388C165.231 294.583 165.5 294.749 165.836 294.885C166.178 295.015 166.536 295.08 166.91 295.08C167.269 295.08 167.559 295.036 167.781 294.95C168.009 294.857 168.175 294.735 168.278 294.583C168.386 294.431 168.441 294.263 168.441 294.079C168.441 293.856 168.376 293.677 168.245 293.542C168.12 293.406 167.955 293.3 167.749 293.224C167.543 293.143 167.315 293.072 167.065 293.012C166.815 292.953 166.566 292.89 166.316 292.825C166.067 292.755 165.836 292.662 165.624 292.549C165.418 292.435 165.25 292.285 165.12 292.101C164.995 291.911 164.933 291.664 164.933 291.36C164.933 291.078 165.006 290.82 165.152 290.587C165.304 290.348 165.535 290.158 165.844 290.017C166.153 289.871 166.55 289.797 167.033 289.797C167.353 289.797 167.67 289.844 167.985 289.936C168.3 290.023 168.571 290.145 168.799 290.302L168.595 290.782C168.351 290.619 168.091 290.5 167.814 290.424C167.543 290.348 167.279 290.31 167.024 290.31C166.683 290.31 166.4 290.356 166.178 290.449C165.955 290.541 165.79 290.666 165.681 290.823C165.578 290.975 165.527 291.149 165.527 291.344C165.527 291.566 165.589 291.745 165.714 291.881C165.844 292.017 166.012 292.123 166.219 292.199C166.43 292.274 166.661 292.342 166.91 292.402C167.16 292.462 167.407 292.527 167.651 292.597C167.901 292.668 168.129 292.76 168.335 292.874C168.546 292.983 168.715 293.129 168.839 293.314C168.97 293.498 169.035 293.74 169.035 294.038C169.035 294.315 168.959 294.573 168.807 294.811C168.655 295.045 168.422 295.235 168.107 295.381C167.798 295.522 167.399 295.593 166.91 295.593ZM170.347 295.544V289.846H170.949V295.544H170.347ZM172.803 295.544V289.846H173.3L177.231 294.795H176.971V289.846H177.565V295.544H177.068L173.145 290.595H173.406V295.544H172.803ZM181.923 295.593C181.489 295.593 181.088 295.522 180.719 295.381C180.355 295.235 180.038 295.031 179.766 294.771C179.5 294.51 179.292 294.204 179.14 293.851C178.993 293.498 178.92 293.113 178.92 292.695C178.92 292.277 178.993 291.892 179.14 291.539C179.292 291.187 179.503 290.88 179.774 290.619C180.046 290.359 180.363 290.158 180.727 290.017C181.096 289.871 181.497 289.797 181.931 289.797C182.366 289.797 182.762 289.865 183.12 290.001C183.483 290.137 183.793 290.343 184.048 290.619L183.673 291.002C183.434 290.763 183.171 290.592 182.884 290.489C182.596 290.386 182.287 290.335 181.956 290.335C181.603 290.335 181.278 290.394 180.979 290.514C180.686 290.628 180.428 290.793 180.206 291.01C179.989 291.222 179.818 291.471 179.693 291.759C179.574 292.041 179.514 292.353 179.514 292.695C179.514 293.031 179.574 293.343 179.693 293.631C179.818 293.919 179.989 294.171 180.206 294.388C180.428 294.6 180.686 294.765 180.979 294.885C181.278 294.998 181.6 295.055 181.948 295.055C182.273 295.055 182.58 295.007 182.867 294.909C183.16 294.811 183.429 294.646 183.673 294.412L184.015 294.868C183.744 295.107 183.426 295.289 183.063 295.414C182.699 295.533 182.319 295.593 181.923 295.593ZM183.437 294.795V292.695H184.015V294.868L183.437 294.795ZM190.145 295.593C189.418 295.593 188.846 295.384 188.428 294.966C188.01 294.548 187.801 293.929 187.801 293.11V289.846H188.404V293.086C188.404 293.759 188.555 294.255 188.859 294.575C189.163 294.895 189.592 295.055 190.145 295.055C190.704 295.055 191.136 294.895 191.44 294.575C191.743 294.255 191.895 293.759 191.895 293.086V289.846H192.481V293.11C192.481 293.929 192.272 294.548 191.855 294.966C191.442 295.384 190.872 295.593 190.145 295.593ZM194.296 295.544V289.846H196.429C196.912 289.846 197.327 289.925 197.674 290.082C198.021 290.234 198.287 290.457 198.472 290.75C198.662 291.037 198.757 291.387 198.757 291.8C198.757 292.201 198.662 292.549 198.472 292.842C198.287 293.129 198.021 293.352 197.674 293.509C197.327 293.666 196.912 293.745 196.429 293.745H194.63L194.899 293.46V295.544H194.296ZM194.899 293.509L194.63 293.216H196.413C196.982 293.216 197.414 293.094 197.707 292.85C198.005 292.6 198.154 292.25 198.154 291.8C198.154 291.344 198.005 290.991 197.707 290.742C197.414 290.492 196.982 290.367 196.413 290.367H194.63L194.899 290.082V293.509Z" fill="#E8E8E3"/>
<path d="M158.891 129.455L132.283 129.334L132.261 134.217L158.869 134.338L158.891 129.455Z" fill="#4CAF4F"/>
<path opacity="0.1" d="M158.891 129.455L132.283 129.334L132.261 134.217L158.869 134.338L158.891 129.455Z" fill="black"/>
<path d="M236.893 159.436C237.102 159.415 237.307 159.366 237.503 159.291C237.789 159.179 238.038 158.989 238.221 158.742C238.404 158.495 238.514 158.201 238.538 157.895C238.538 156.25 238.538 153.849 238.538 150.766C238.538 149.225 238.538 147.497 238.538 145.594C238.538 145.128 238.538 144.642 238.538 144.156C238.605 143.684 238.502 143.203 238.248 142.8C238.106 142.607 237.92 142.45 237.707 142.34C237.493 142.231 237.257 142.172 237.017 142.169H235.403H220.454L133.923 141.849C133.702 141.845 133.483 141.895 133.285 141.994C133.086 142.093 132.915 142.238 132.785 142.418C132.535 142.822 132.44 143.303 132.516 143.773C132.516 144.807 132.516 145.842 132.516 146.877C132.516 148.946 132.516 151.015 132.516 153.084C132.516 154.118 132.516 155.153 132.516 156.188C132.473 156.669 132.473 157.154 132.516 157.636C132.571 157.842 132.672 158.034 132.812 158.195C132.951 158.357 133.126 158.484 133.323 158.567C133.527 158.648 133.745 158.687 133.965 158.681H139.231L162.208 158.805L201.107 159.043L227.333 159.25L234.461 159.333H236.313C236.737 159.333 236.944 159.333 236.944 159.333H236.313H234.461H227.333H201.107L162.208 159.208L139.231 159.115H133.965C133.675 159.127 133.386 159.078 133.116 158.97C132.844 158.854 132.602 158.677 132.408 158.453C132.214 158.229 132.075 157.964 131.999 157.677C131.939 157.406 131.918 157.127 131.937 156.85V156.084C131.937 155.049 131.937 154.015 131.937 152.98C131.937 150.911 131.937 148.842 131.937 146.773C131.937 145.738 131.937 144.704 131.937 143.669C131.917 143.394 131.917 143.117 131.937 142.842C131.976 142.537 132.093 142.249 132.278 142.004C132.457 141.754 132.693 141.551 132.967 141.412C133.241 141.274 133.544 141.203 133.851 141.207L220.381 141.683L235.331 141.786H236.944C237.229 141.787 237.509 141.855 237.761 141.987C238.013 142.118 238.23 142.309 238.393 142.542C238.684 142.992 238.802 143.532 238.724 144.063C238.724 144.549 238.724 145.035 238.724 145.501C238.724 147.383 238.724 149.111 238.724 150.673C238.724 153.777 238.651 156.156 238.631 157.812C238.605 158.13 238.49 158.434 238.297 158.689C238.105 158.944 237.844 159.138 237.544 159.25C237.349 159.371 237.123 159.436 236.893 159.436Z" fill="#E0E0E0"/>
<path d="M188.941 147.042H140.275V151.604H188.941V147.042Z" fill="#4CAF4F"/>
<path opacity="0.2" d="M188.941 147.042H140.275V151.604H188.941V147.042Z" fill="white"/>
<path d="M158.71 174.001L132.101 173.881L132.079 178.764L158.688 178.885L158.71 174.001Z" fill="#4CAF4F"/>
<path opacity="0.1" d="M158.71 174.001L132.101 173.881L132.079 178.764L158.688 178.885L158.71 174.001Z" fill="black"/>
<path d="M236.22 203.984C236.429 203.958 236.637 203.92 236.841 203.87C237.13 203.778 237.396 203.625 237.621 203.422C237.846 203.218 238.024 202.969 238.145 202.691C238.307 202.273 238.371 201.823 238.331 201.377C238.331 200.88 238.331 200.342 238.331 199.742C238.331 198.542 238.331 197.177 238.331 195.604V189.035C238.38 188.559 238.275 188.08 238.031 187.669C237.776 187.247 237.374 186.934 236.903 186.79C236.388 186.698 235.863 186.67 235.341 186.707H220.454L134.223 186.386C133.76 186.387 133.312 186.557 132.964 186.863C132.615 187.17 132.39 187.592 132.33 188.052C132.33 189.035 132.33 190.121 132.33 191.156C132.33 193.225 132.33 195.294 132.33 197.363C132.33 198.397 132.33 199.432 132.33 200.467C132.292 200.95 132.312 201.436 132.392 201.915C132.521 202.334 132.787 202.699 133.147 202.949C133.53 203.192 133.978 203.308 134.43 203.281H135.868H138.858L161.753 203.394L200.518 203.632L226.651 203.839L233.758 203.922H226.651H200.518L161.732 203.881L138.837 203.798H134.337C133.778 203.831 133.222 203.682 132.754 203.374C132.284 203.048 131.94 202.569 131.782 202.018C131.689 201.493 131.661 200.958 131.699 200.425C131.699 199.391 131.699 198.356 131.699 197.321C131.699 195.252 131.699 193.183 131.699 191.114C131.699 190.08 131.699 189.045 131.699 188.01C131.775 187.419 132.063 186.875 132.511 186.481C132.958 186.087 133.534 185.869 134.13 185.869L220.361 186.345L235.248 186.459C235.802 186.425 236.359 186.463 236.903 186.572C237.441 186.748 237.894 187.117 238.176 187.607C238.443 188.063 238.559 188.592 238.507 189.117C238.507 189.604 238.507 190.08 238.507 190.555C238.507 192.428 238.507 194.145 238.507 195.728C238.507 197.311 238.507 198.646 238.507 199.866C238.507 200.456 238.507 201.004 238.507 201.511C238.544 201.974 238.47 202.439 238.289 202.867C238.155 203.152 237.961 203.405 237.72 203.609C237.479 203.812 237.197 203.962 236.893 204.046C236.667 204.065 236.439 204.044 236.22 203.984Z" fill="#E0E0E0"/>
<path d="M158.509 220.483L131.901 220.362L131.879 225.245L158.487 225.366L158.509 220.483Z" fill="#4CAF4F"/>
<path opacity="0.1" d="M158.509 220.483L131.901 220.362L131.879 225.245L158.487 225.366L158.509 220.483Z" fill="black"/>
<path d="M236.013 250.446C236.222 250.421 236.43 250.383 236.634 250.332C236.922 250.241 237.187 250.089 237.411 249.888C237.636 249.686 237.816 249.439 237.938 249.163C238.1 248.745 238.164 248.296 238.124 247.849C238.124 247.342 238.124 246.815 238.124 246.204C238.124 245.015 238.124 243.639 238.124 242.066V235.497C238.173 235.021 238.068 234.542 237.824 234.131C237.563 233.717 237.163 233.409 236.696 233.262C236.181 233.166 235.657 233.135 235.134 233.169H220.247L134.016 232.848C133.553 232.849 133.105 233.019 132.757 233.325C132.408 233.631 132.183 234.054 132.123 234.514C132.123 235.548 132.123 236.583 132.123 237.617C132.123 239.687 132.123 241.756 132.123 243.825C132.123 244.859 132.123 245.894 132.123 246.928C132.085 247.409 132.106 247.892 132.185 248.366C132.309 248.789 132.576 249.154 132.94 249.401C133.32 249.649 133.771 249.765 134.223 249.732H138.724L161.618 249.856L200.383 250.094L226.516 250.301L233.623 250.384H226.516H200.383L161.618 250.27L138.724 250.177H134.223C133.663 250.215 133.107 250.066 132.64 249.753C132.17 249.427 131.826 248.948 131.668 248.398C131.575 247.872 131.547 247.337 131.585 246.804C131.585 245.77 131.585 244.735 131.585 243.701C131.585 241.632 131.585 239.562 131.585 237.493C131.585 236.459 131.585 235.424 131.585 234.338C131.658 233.747 131.945 233.204 132.391 232.809C132.836 232.415 133.411 232.197 134.006 232.196L220.236 232.672L235.124 232.786C235.678 232.752 236.234 232.79 236.779 232.9C237.316 233.075 237.77 233.444 238.051 233.934C238.319 234.39 238.435 234.919 238.382 235.445C238.382 235.931 238.382 236.417 238.382 236.883C238.382 238.755 238.382 240.473 238.382 242.056C238.382 243.639 238.382 244.973 238.382 246.194C238.382 246.784 238.382 247.332 238.382 247.839C238.422 248.302 238.348 248.767 238.165 249.194C238.031 249.48 237.837 249.733 237.596 249.936C237.355 250.14 237.072 250.289 236.769 250.374C236.526 250.457 236.267 250.481 236.013 250.446Z" fill="#E0E0E0"/>
<path d="M187.902 192.88L139.237 192.659L139.216 197.221L187.881 197.442L187.902 192.88Z" fill="#4CAF4F"/>
<path opacity="0.2" d="M187.902 192.88L139.237 192.659L139.216 197.221L187.881 197.442L187.902 192.88Z" fill="white"/>
<path d="M143.638 242.004C143.607 242.42 143.455 242.818 143.201 243.149C142.946 243.479 142.6 243.728 142.205 243.863C141.811 243.999 141.385 244.016 140.981 243.912C140.577 243.808 140.212 243.587 139.932 243.278C139.652 242.969 139.469 242.584 139.406 242.171C139.342 241.759 139.402 241.337 139.576 240.958C139.75 240.579 140.032 240.259 140.386 240.039C140.74 239.818 141.152 239.707 141.569 239.718C142.145 239.75 142.686 240.008 143.073 240.436C143.46 240.864 143.663 241.427 143.638 242.004Z" fill="#4CAF4F"/>
<path d="M150.228 242.035C150.248 242.327 150.208 242.619 150.111 242.895C150.013 243.171 149.86 243.423 149.66 243.637C149.461 243.851 149.22 244.021 148.952 244.138C148.683 244.254 148.394 244.315 148.102 244.315C147.809 244.315 147.52 244.254 147.252 244.138C146.984 244.021 146.743 243.851 146.543 243.637C146.344 243.423 146.191 243.171 146.093 242.895C145.995 242.619 145.955 242.327 145.976 242.035C145.955 241.743 145.995 241.451 146.093 241.175C146.191 240.899 146.344 240.647 146.543 240.433C146.743 240.219 146.984 240.049 147.252 239.932C147.52 239.816 147.809 239.755 148.102 239.755C148.394 239.755 148.683 239.816 148.952 239.932C149.22 240.049 149.461 240.219 149.66 240.433C149.86 240.647 150.013 240.899 150.111 241.175C150.208 241.451 150.248 241.743 150.228 242.035Z" fill="#4CAF4F"/>
<path d="M156.828 242.066C156.798 242.482 156.646 242.88 156.391 243.211C156.137 243.541 155.79 243.79 155.396 243.925C155.001 244.061 154.576 244.078 154.171 243.974C153.767 243.87 153.403 243.65 153.123 243.34C152.843 243.031 152.66 242.646 152.596 242.234C152.533 241.821 152.592 241.399 152.766 241.02C152.941 240.641 153.222 240.321 153.577 240.101C153.931 239.88 154.342 239.769 154.759 239.78C155.335 239.814 155.874 240.073 156.26 240.501C156.647 240.928 156.851 241.49 156.828 242.066Z" fill="#4CAF4F"/>
<path d="M163.419 242.097C163.388 242.513 163.236 242.911 162.981 243.242C162.727 243.572 162.381 243.821 161.986 243.957C161.591 244.092 161.166 244.109 160.762 244.005C160.357 243.901 159.993 243.681 159.713 243.371C159.433 243.062 159.25 242.677 159.187 242.265C159.123 241.852 159.182 241.43 159.357 241.051C159.531 240.672 159.813 240.352 160.167 240.132C160.521 239.911 160.932 239.8 161.349 239.811C161.925 239.845 162.464 240.104 162.85 240.532C163.237 240.959 163.441 241.521 163.419 242.097Z" fill="#4CAF4F"/>
<path d="M170.009 242.118C169.98 242.535 169.83 242.934 169.576 243.266C169.323 243.598 168.977 243.848 168.583 243.985C168.188 244.122 167.762 244.141 167.357 244.038C166.952 243.935 166.586 243.715 166.305 243.406C166.024 243.097 165.841 242.712 165.776 242.299C165.712 241.886 165.771 241.464 165.945 241.084C166.119 240.704 166.401 240.384 166.756 240.163C167.11 239.942 167.522 239.831 167.94 239.842C168.513 239.876 169.05 240.134 169.437 240.559C169.823 240.984 170.029 241.544 170.009 242.118Z" fill="#4CAF4F"/>
<path d="M176.609 242.149C176.581 242.563 176.432 242.961 176.181 243.292C175.93 243.623 175.587 243.873 175.196 244.012C174.804 244.151 174.38 244.173 173.977 244.074C173.573 243.975 173.207 243.761 172.924 243.457C172.64 243.153 172.452 242.773 172.382 242.363C172.312 241.953 172.363 241.532 172.53 241.151C172.696 240.77 172.97 240.446 173.318 240.219C173.666 239.992 174.073 239.872 174.488 239.873C175.071 239.894 175.621 240.146 176.019 240.573C176.416 240.999 176.629 241.566 176.609 242.149Z" fill="#4CAF4F"/>
<path d="M183.199 242.18C183.22 242.471 183.18 242.764 183.082 243.04C182.984 243.315 182.831 243.568 182.632 243.782C182.432 243.996 182.191 244.166 181.923 244.283C181.655 244.399 181.366 244.459 181.073 244.459C180.781 244.459 180.492 244.399 180.223 244.283C179.955 244.166 179.714 243.996 179.515 243.782C179.315 243.568 179.162 243.315 179.064 243.04C178.967 242.764 178.927 242.471 178.947 242.18C178.927 241.888 178.967 241.595 179.064 241.32C179.162 241.044 179.315 240.792 179.515 240.578C179.714 240.364 179.955 240.194 180.223 240.077C180.492 239.96 180.781 239.9 181.073 239.9C181.366 239.9 181.655 239.96 181.923 240.077C182.191 240.194 182.432 240.364 182.632 240.578C182.831 240.792 182.984 241.044 183.082 241.32C183.18 241.595 183.22 241.888 183.199 242.18Z" fill="#4CAF4F"/>
<path d="M189.789 242.211C189.761 242.625 189.612 243.023 189.361 243.354C189.11 243.685 188.768 243.935 188.376 244.074C187.984 244.213 187.561 244.235 187.157 244.136C186.753 244.038 186.387 243.823 186.104 243.519C185.821 243.215 185.632 242.835 185.562 242.425C185.492 242.015 185.544 241.594 185.71 241.213C185.876 240.833 186.15 240.509 186.498 240.281C186.846 240.054 187.253 239.934 187.669 239.935C188.251 239.956 188.802 240.208 189.199 240.635C189.597 241.061 189.809 241.628 189.789 242.211Z" fill="#4CAF4F"/>
<path d="M196.379 242.242C196.351 242.659 196.201 243.058 195.947 243.39C195.693 243.722 195.348 243.972 194.953 244.109C194.559 244.246 194.133 244.265 193.728 244.162C193.323 244.059 192.957 243.839 192.676 243.53C192.395 243.221 192.211 242.836 192.147 242.423C192.083 242.01 192.142 241.588 192.316 241.208C192.49 240.828 192.772 240.508 193.127 240.287C193.481 240.066 193.893 239.955 194.31 239.966C194.884 240.001 195.421 240.258 195.808 240.683C196.194 241.108 196.399 241.668 196.379 242.242Z" fill="#4CAF4F"/>
<g opacity="0.2">
<path d="M143.638 242.004C143.607 242.42 143.455 242.818 143.201 243.149C142.946 243.479 142.6 243.728 142.205 243.863C141.811 243.999 141.385 244.016 140.981 243.912C140.577 243.808 140.212 243.587 139.932 243.278C139.652 242.969 139.469 242.584 139.406 242.171C139.342 241.759 139.402 241.337 139.576 240.958C139.75 240.579 140.032 240.259 140.386 240.039C140.74 239.818 141.152 239.707 141.569 239.718C142.145 239.75 142.686 240.008 143.073 240.436C143.46 240.864 143.663 241.427 143.638 242.004Z" fill="white"/>
<path d="M150.228 242.035C150.248 242.327 150.208 242.619 150.111 242.895C150.013 243.171 149.86 243.423 149.66 243.637C149.461 243.851 149.22 244.021 148.952 244.138C148.683 244.254 148.394 244.315 148.102 244.315C147.809 244.315 147.52 244.254 147.252 244.138C146.984 244.021 146.743 243.851 146.543 243.637C146.344 243.423 146.191 243.171 146.093 242.895C145.995 242.619 145.955 242.327 145.976 242.035C145.955 241.743 145.995 241.451 146.093 241.175C146.191 240.899 146.344 240.647 146.543 240.433C146.743 240.219 146.984 240.049 147.252 239.932C147.52 239.816 147.809 239.755 148.102 239.755C148.394 239.755 148.683 239.816 148.952 239.932C149.22 240.049 149.461 240.219 149.66 240.433C149.86 240.647 150.013 240.899 150.111 241.175C150.208 241.451 150.248 241.743 150.228 242.035Z" fill="white"/>
<path d="M156.828 242.066C156.798 242.482 156.646 242.88 156.391 243.211C156.137 243.541 155.79 243.79 155.396 243.925C155.001 244.061 154.576 244.078 154.171 243.974C153.767 243.87 153.403 243.65 153.123 243.34C152.843 243.031 152.66 242.646 152.596 242.234C152.533 241.821 152.592 241.399 152.766 241.02C152.941 240.641 153.222 240.321 153.577 240.101C153.931 239.88 154.342 239.769 154.759 239.78C155.335 239.814 155.874 240.073 156.26 240.501C156.647 240.928 156.851 241.49 156.828 242.066Z" fill="white"/>
<path d="M163.419 242.097C163.388 242.513 163.236 242.911 162.981 243.242C162.727 243.572 162.381 243.821 161.986 243.957C161.591 244.092 161.166 244.109 160.762 244.005C160.357 243.901 159.993 243.681 159.713 243.371C159.433 243.062 159.25 242.677 159.187 242.265C159.123 241.852 159.182 241.43 159.357 241.051C159.531 240.672 159.813 240.352 160.167 240.132C160.521 239.911 160.932 239.8 161.349 239.811C161.925 239.845 162.464 240.104 162.85 240.532C163.237 240.959 163.441 241.521 163.419 242.097Z" fill="white"/>
<path d="M170.009 242.118C169.98 242.535 169.83 242.934 169.576 243.266C169.323 243.598 168.977 243.848 168.583 243.985C168.188 244.122 167.762 244.141 167.357 244.038C166.952 243.935 166.586 243.715 166.305 243.406C166.024 243.097 165.841 242.712 165.776 242.299C165.712 241.886 165.771 241.464 165.945 241.084C166.119 240.704 166.401 240.384 166.756 240.163C167.11 239.942 167.522 239.831 167.94 239.842C168.513 239.876 169.05 240.134 169.437 240.559C169.823 240.984 170.029 241.544 170.009 242.118Z" fill="white"/>
<path d="M176.609 242.149C176.581 242.563 176.432 242.961 176.181 243.292C175.93 243.623 175.587 243.873 175.196 244.012C174.804 244.151 174.38 244.173 173.977 244.074C173.573 243.975 173.207 243.761 172.924 243.457C172.64 243.153 172.452 242.773 172.382 242.363C172.312 241.953 172.363 241.532 172.53 241.151C172.696 240.77 172.97 240.446 173.318 240.219C173.666 239.992 174.073 239.872 174.488 239.873C175.071 239.894 175.621 240.146 176.019 240.573C176.416 240.999 176.629 241.566 176.609 242.149Z" fill="white"/>
<path d="M183.199 242.18C183.22 242.471 183.18 242.764 183.082 243.04C182.984 243.315 182.831 243.568 182.632 243.782C182.432 243.996 182.191 244.166 181.923 244.283C181.655 244.399 181.366 244.459 181.073 244.459C180.781 244.459 180.492 244.399 180.223 244.283C179.955 244.166 179.714 243.996 179.515 243.782C179.315 243.568 179.162 243.315 179.064 243.04C178.967 242.764 178.927 242.471 178.947 242.18C178.927 241.888 178.967 241.595 179.064 241.32C179.162 241.044 179.315 240.792 179.515 240.578C179.714 240.364 179.955 240.194 180.223 240.077C180.492 239.96 180.781 239.9 181.073 239.9C181.366 239.9 181.655 239.96 181.923 240.077C182.191 240.194 182.432 240.364 182.632 240.578C182.831 240.792 182.984 241.044 183.082 241.32C183.18 241.595 183.22 241.888 183.199 242.18Z" fill="white"/>
<path d="M189.789 242.211C189.761 242.625 189.612 243.023 189.361 243.354C189.11 243.685 188.768 243.935 188.376 244.074C187.984 244.213 187.561 244.235 187.157 244.136C186.753 244.038 186.387 243.823 186.104 243.519C185.821 243.215 185.632 242.835 185.562 242.425C185.492 242.015 185.544 241.594 185.71 241.213C185.876 240.833 186.15 240.509 186.498 240.281C186.846 240.054 187.253 239.934 187.669 239.935C188.251 239.956 188.802 240.208 189.199 240.635C189.597 241.061 189.809 241.628 189.789 242.211Z" fill="white"/>
<path d="M196.379 242.242C196.351 242.659 196.201 243.058 195.947 243.39C195.693 243.722 195.348 243.972 194.953 244.109C194.559 244.246 194.133 244.265 193.728 244.162C193.323 244.059 192.957 243.839 192.676 243.53C192.395 243.221 192.211 242.836 192.147 242.423C192.083 242.01 192.142 241.588 192.316 241.208C192.49 240.828 192.772 240.508 193.127 240.287C193.481 240.066 193.893 239.955 194.31 239.966C194.884 240.001 195.421 240.258 195.808 240.683C196.194 241.108 196.399 241.668 196.379 242.242Z" fill="white"/>
</g>
<path d="M187.017 92.8934C187.735 92.5769 188.345 92.056 188.77 91.3957C189.195 90.7353 189.416 89.9645 189.407 89.1793C189.433 88.6689 189.356 88.1583 189.179 87.6787C189.002 87.1992 188.729 86.7607 188.378 86.3899C188.026 86.0191 187.602 85.7238 187.133 85.522C186.663 85.3203 186.157 85.2162 185.646 85.2162C185.135 85.2162 184.629 85.3203 184.159 85.522C183.69 85.7238 183.266 86.0191 182.914 86.3899C182.562 86.7607 182.29 87.1992 182.113 87.6787C181.936 88.1583 181.859 88.6689 181.885 89.1793C181.87 89.9724 182.089 90.7524 182.516 91.4207C182.944 92.0891 183.559 92.616 184.286 92.9347C178.492 93.8038 178.751 100.094 178.751 100.094L192.448 100.156C192.448 100.156 192.769 93.752 187.017 92.8934Z" fill="#4CAF4F"/>
<path opacity="0.1" d="M187.017 92.8934C187.735 92.5769 188.345 92.056 188.77 91.3957C189.195 90.7353 189.416 89.9645 189.407 89.1793C189.433 88.6689 189.356 88.1583 189.179 87.6787C189.002 87.1992 188.729 86.7607 188.378 86.3899C188.026 86.0191 187.602 85.7238 187.133 85.522C186.663 85.3203 186.157 85.2162 185.646 85.2162C185.135 85.2162 184.629 85.3203 184.159 85.522C183.69 85.7238 183.266 86.0191 182.914 86.3899C182.562 86.7607 182.29 87.1992 182.113 87.6787C181.936 88.1583 181.859 88.6689 181.885 89.1793C181.87 89.9724 182.089 90.7524 182.516 91.4207C182.944 92.0891 183.559 92.616 184.286 92.9347C178.492 93.8038 178.751 100.094 178.751 100.094L192.448 100.156C192.448 100.156 192.769 93.752 187.017 92.8934Z" fill="black"/>
<path d="M209.275 104.213L160.455 103.991L160.428 109.826L209.248 110.048L209.275 104.213Z" fill="#4CAF4F"/>
<path opacity="0.2" d="M209.275 104.213L160.455 103.991L160.428 109.826L209.248 110.048L209.275 104.213Z" fill="white"/>
<path d="M29.7952 134.451H29.309L27.902 134.555C27.1406 134.601 26.3834 134.701 25.6363 134.855C25.1524 134.923 24.6724 135.016 24.1983 135.134L22.5947 135.579C19.8654 136.417 17.2902 137.692 14.97 139.355C11.9045 141.58 9.34477 144.429 7.45915 147.715C6.35086 149.608 5.46889 151.626 4.83137 153.725C4.16149 156.007 3.7758 158.363 3.68302 160.74C3.62137 161.988 3.6421 163.239 3.74509 164.485C3.74509 165.116 3.92097 165.747 4.00373 166.388C4.07335 167.035 4.19443 167.675 4.36583 168.302C5.29612 172.454 7.18372 176.33 9.87805 179.623C12.5724 182.915 15.9989 185.532 19.8842 187.266C22.6962 188.479 25.7102 189.156 28.771 189.262C31.9323 189.436 35.0968 188.983 38.082 187.928L38.9924 187.586H39.1166L39.22 187.648L52.2658 194.27L51.883 194.601C50.4864 190.276 49.1414 186.086 47.8379 182.062V181.907L47.9517 181.793C51.1164 178.605 53.4657 174.702 54.8004 170.413C56.0093 166.492 56.3621 162.357 55.835 158.288C55.3661 154.671 54.2034 151.18 52.4106 148.004C50.8653 145.276 48.8718 142.828 46.5137 140.762C44.5681 139.127 42.4148 137.756 40.1097 136.686C38.3656 135.934 36.5491 135.362 34.6887 134.979L32.6196 134.638L31.1195 134.524L30.209 134.462H29.8987C30.0018 134.45 30.1059 134.45 30.209 134.462H31.1298L32.6299 134.524L34.699 134.824C36.5826 135.179 38.4239 135.73 40.1925 136.469C42.5372 137.526 44.7293 138.894 46.7102 140.535C49.1117 142.591 51.1475 145.04 52.7313 147.777C54.575 150.986 55.7734 154.525 56.2592 158.195C56.8301 162.327 56.5019 166.533 55.297 170.526C53.9536 174.905 51.5679 178.891 48.3448 182.145L48.4069 181.876C49.7104 185.9 51.0657 190.09 52.4727 194.404L52.6693 195.035L52.0796 194.735L39.0338 188.124H39.2614L38.3303 188.466C35.2876 189.536 32.0646 190 28.8434 189.831C25.7167 189.712 22.6396 189.011 19.7704 187.762C14.2973 185.418 9.74368 181.344 6.80738 176.165C5.45616 173.773 4.46936 171.192 3.87958 168.509C3.71808 167.866 3.59714 167.212 3.51749 166.554C3.43473 165.902 3.30024 165.261 3.2692 164.619C2.9892 160.938 3.37827 157.237 4.41756 153.694C5.07094 151.566 5.9775 149.523 7.11775 147.611C9.04835 144.296 11.6614 141.429 14.7838 139.2C17.1422 137.532 19.7606 136.267 22.5326 135.455L24.1569 135.041C24.6349 134.93 25.1184 134.844 25.6053 134.783C26.3601 134.643 27.1244 134.56 27.8916 134.534L29.309 134.483C29.4701 134.461 29.6326 134.45 29.7952 134.451Z" fill="#4CAF4F"/>
<path d="M35.6922 158.577H33.7782L29.64 152.763V148.946C29.64 148.946 26.6812 148.759 27.0329 153.756C27.3847 158.753 27.0329 157.481 27.0329 157.481C27.0329 157.481 20.7532 157.481 20.2359 158.05C19.7186 158.619 19.6876 164.681 19.6152 168.064C19.5755 168.88 19.8095 169.685 20.28 170.352C20.7505 171.02 21.4304 171.511 22.2119 171.747C22.4309 171.808 22.6571 171.839 22.8844 171.84C24.4569 171.84 32.454 170.568 32.454 170.568H35.7542L35.6922 158.577Z" fill="#4CAF4F"/>
<path d="M41.165 157.553L39.9856 170.63H36.7164V157.822L41.165 157.553Z" fill="#4CAF4F"/>
<path d="M80.1573 423.775V414.93L64.2976 414.816L64.1631 428.193L65.1459 428.265C69.5221 428.545 87.4096 428.959 90.3477 428.048C93.6169 427.034 80.1573 423.775 80.1573 423.775Z" fill="#4CAF4F"/>
<path d="M90.7202 427.221C90.7202 427.365 84.7818 427.49 77.4675 427.49C70.1532 427.49 64.2149 427.365 64.2149 427.221C64.2149 427.076 70.1532 426.952 77.4675 426.952C84.7818 426.952 90.7202 427.076 90.7202 427.221Z" fill="#263238"/>
<path d="M80.4367 425.586C80.3022 425.514 80.4367 425.048 80.7574 424.551C81.0781 424.055 81.5126 423.848 81.6161 423.951C81.7195 424.055 81.5023 424.448 81.1919 424.872C80.8816 425.296 80.5712 425.658 80.4367 425.586Z" fill="#263238"/>
<path d="M81.4506 426.165C81.3057 426.165 81.3782 425.586 81.6885 425.038C81.9989 424.489 82.4127 424.158 82.5265 424.241C82.6403 424.324 82.4541 424.789 82.1644 425.276C81.8748 425.762 81.5851 426.217 81.4506 426.165Z" fill="#263238"/>
<path d="M68.9945 427.179C68.9324 427.179 68.6945 426.993 68.3531 426.6C67.9363 426.094 67.4721 425.63 66.9668 425.213C66.4699 424.816 65.8779 424.556 65.2494 424.458C64.7632 424.396 64.4528 424.458 64.4218 424.396C64.3907 424.334 64.6908 424.117 65.2598 424.075C66.0107 424.06 66.7432 424.309 67.3289 424.779C67.8776 425.226 68.3403 425.77 68.6945 426.383C68.9325 426.838 69.0566 427.138 68.9945 427.179Z" fill="#263238"/>
<path d="M80.4884 423.92C80.5608 424.044 80.2919 424.355 79.8367 424.52C79.3814 424.686 78.978 424.624 78.9573 424.52C78.9366 424.417 79.2573 424.2 79.6504 424.055C80.0436 423.91 80.4057 423.796 80.4884 423.92Z" fill="#263238"/>
<path d="M80.2401 423.062C80.2401 423.217 79.8263 423.341 79.2883 423.351C78.7503 423.362 78.3262 423.238 78.3365 423.093C78.3469 422.948 78.771 422.813 79.2883 422.803C79.8056 422.793 80.2194 422.917 80.2401 423.062Z" fill="#263238"/>
<path d="M119.212 423.775V414.93L103.352 414.816L103.218 428.059L104.2 428.131C108.577 428.41 126.474 428.959 129.402 428.048C132.671 427.034 119.212 423.775 119.212 423.775Z" fill="#4CAF4F"/>
<path d="M129.775 427.241C129.775 427.386 123.847 427.51 116.522 427.51C109.197 427.51 103.28 427.386 103.28 427.241C103.28 427.096 109.208 426.972 116.522 426.972C123.836 426.972 129.775 427.096 129.775 427.241Z" fill="#263238"/>
<path d="M119.491 425.586C119.367 425.514 119.491 425.048 119.812 424.551C120.133 424.055 120.567 423.848 120.671 423.951C120.774 424.055 120.557 424.448 120.246 424.872C119.936 425.296 119.626 425.658 119.491 425.586Z" fill="#263238"/>
<path d="M120.505 426.165C120.371 426.165 120.433 425.586 120.753 425.038C121.074 424.489 121.478 424.158 121.591 424.241C121.705 424.324 121.509 424.789 121.219 425.276C120.929 425.762 120.65 426.217 120.505 426.165Z" fill="#263238"/>
<path d="M108.049 427.179C107.987 427.179 107.759 426.993 107.408 426.6C106.991 426.094 106.527 425.63 106.021 425.213C105.524 424.816 104.932 424.556 104.304 424.458C103.828 424.396 103.507 424.458 103.476 424.396C103.445 424.334 103.745 424.117 104.314 424.075C105.065 424.06 105.798 424.309 106.383 424.779C106.935 425.223 107.398 425.767 107.749 426.383C107.987 426.838 108.111 427.138 108.049 427.179Z" fill="#263238"/>
<path d="M119.543 423.92C119.615 424.044 119.346 424.355 118.891 424.52C118.436 424.686 118.032 424.624 118.012 424.52C117.991 424.417 118.312 424.2 118.705 424.055C119.098 423.91 119.46 423.796 119.543 423.92Z" fill="#263238"/>
<path d="M119.315 423.062C119.315 423.217 118.901 423.341 118.364 423.351C117.826 423.362 117.412 423.238 117.422 423.093C117.432 422.948 117.846 422.813 118.364 422.803C118.881 422.793 119.315 422.917 119.315 423.062Z" fill="#263238"/>
<path d="M177.644 161.102C177.23 160.677 176.206 160.884 176.206 160.884C176.308 160.289 176.308 159.68 176.206 159.084C176.019 158.505 174.716 158.619 174.716 158.619C174.656 158.131 174.656 157.637 174.716 157.15C174.726 157.042 174.703 156.933 174.649 156.838C174.596 156.744 174.514 156.668 174.416 156.622C173.799 156.371 173.137 156.251 172.471 156.27C171.674 155.701 174.902 151.18 176.102 149.732C177.302 148.283 177.085 147.156 176.019 147.156C175.285 147.156 171.519 151.501 170.36 152.96C169.202 154.418 166.129 158.474 166.026 155.236C165.922 151.998 164.619 149.556 163.801 149.142C162.984 148.728 162.115 149.701 162.56 150.601C162.951 151.623 163.194 152.696 163.284 153.787C163.396 154.656 163.358 155.538 163.17 156.394C162.827 157.987 162.36 159.551 161.774 161.071H161.691C161.691 161.071 139.117 182.724 137.482 184.265C136.023 185.652 106.683 182.62 100.797 182C98.7964 181.707 96.7765 181.569 94.7549 181.586C92.1996 181.7 91.7444 182.062 89.1994 182.093C82.7721 182.164 76.3598 182.728 70.0187 183.779C67.1475 184.267 64.4654 185.535 62.2652 187.443C60.065 189.351 58.4312 191.827 57.542 194.601C51.614 213.119 38.1854 256.953 35.8163 281.576C34.026 284.822 32.4099 288.162 30.9746 291.58C29.3089 296.111 29.7124 296.266 30.2711 296.37C31.7815 296.649 33.4989 288.518 34.1403 290.483C34.7817 292.449 30.8815 300.177 32.4643 300.405C34.5334 300.694 36.1784 292.128 36.375 291.445C36.5715 290.763 37.5957 290.98 37.4095 291.621C37.1095 292.532 34.2024 302.184 36.2301 302.494C37.3474 302.66 37.4716 300.622 37.4716 300.622C37.4716 300.622 39.5407 291.383 40.4821 291.57C41.4236 291.756 40.4201 297.208 39.9442 299.029C39.4683 300.85 40.1304 301.77 41.1029 301.325C41.765 301.015 43.3479 295.48 43.7824 293.68C44.2169 291.88 45.3032 286.893 46.7619 289.78C48.2206 292.666 50.4346 294.342 51.345 294.384C51.5501 294.36 51.7435 294.275 51.9002 294.141C52.0569 294.006 52.1698 293.828 52.2243 293.629C52.2789 293.43 52.2725 293.219 52.2062 293.023C52.1398 292.828 52.0164 292.657 51.8519 292.532C51.0689 291.767 50.3968 290.896 49.8552 289.945C49.3726 289.204 49.0225 288.385 48.8207 287.524C48.4038 285.808 48.1611 284.054 48.0965 282.29L47.9309 281.255C50.2483 269.782 56.9212 236.107 66.553 214.599L70.505 222.73L72.2223 228.751L61.6905 254.75L106.611 254.16L99.9071 228.358L108.049 201.46C116.853 201.656 139.458 201.987 143.224 200.28C147.962 198.211 172.471 167.257 172.471 167.257C174.068 166.016 175.598 164.69 177.054 163.285C177.054 163.285 178.544 162.033 177.644 161.102Z" fill="#FFBE9D"/>
<path d="M59.7145 235.538C61.0181 231.089 67.7117 209.095 67.7117 209.095C67.7117 209.095 71.0016 227.024 70.1325 229.186C69.3332 231.037 68.3888 232.822 67.3082 234.524C59.7145 246.08 60.7077 251.863 60.7077 251.863L106.59 250.467C106.694 244.052 102.897 229.134 102.111 226.755C101.324 224.375 103.942 216.585 103.942 216.585C103.942 216.585 109.115 211.319 108.928 208.608C108.83 206.174 108.529 203.751 108.028 201.367L135.961 202.401L135.082 183.469L94.9619 179.455C93.5652 183.396 80.9333 181.462 80.9333 181.462C67.2978 181.917 66.4495 184.421 60.7801 188.828C55.1108 193.235 45.7273 231.058 45.7273 231.058L59.7145 235.538Z" fill="#4CAF4F"/>
<path d="M86.8406 231.058C86.0455 231.2 85.2356 231.242 84.4301 231.182C82.93 231.182 80.8712 231.079 78.6055 230.851C76.3399 230.624 74.2915 230.303 72.8327 230.013C72.0284 229.91 71.2397 229.708 70.4843 229.413C71.2931 229.414 72.1002 229.49 72.8948 229.641C74.3639 229.827 76.4019 230.086 78.6573 230.313C80.9126 230.541 82.961 230.696 84.4404 230.8C85.2469 230.81 86.0505 230.897 86.8406 231.058Z" fill="#263238"/>
<path d="M89.9856 227.158C89.1902 227.548 88.3491 227.836 87.482 228.017C83.3545 229.101 79.0961 229.606 74.8294 229.517C73.9465 229.546 73.0635 229.462 72.2016 229.269C73.073 229.159 73.9513 229.114 74.8294 229.134C76.4537 229.082 78.6883 228.969 81.1505 228.679C83.6128 228.389 85.806 227.975 87.3579 227.644C88.2198 227.414 89.0984 227.252 89.9856 227.158Z" fill="#263238"/>
<path d="M105.421 209.757C105.4 210.546 105.293 211.33 105.101 212.095C104.832 213.533 104.418 215.499 103.89 217.651C103.362 219.802 102.856 221.789 102.4 223.134C102.217 223.903 101.947 224.65 101.593 225.358C101.651 224.572 101.797 223.794 102.028 223.041C102.421 221.427 102.866 219.564 103.362 217.526C103.859 215.488 104.335 213.626 104.728 212.012C104.868 211.235 105.101 210.478 105.421 209.757Z" fill="#263238"/>
<path d="M60.2008 232.9C57.8074 232.53 55.4453 231.98 53.1347 231.255C50.7738 230.703 48.4569 229.977 46.2032 229.082C48.5955 229.458 50.9571 230.008 53.2692 230.727C55.6308 231.277 57.9477 232.004 60.2008 232.9Z" fill="#263238"/>
<path d="M108.525 201.139C108.135 201.206 107.736 201.206 107.346 201.139C106.265 201.028 105.204 200.774 104.19 200.384C102.498 199.748 100.957 198.765 99.6671 197.498C98.3771 196.231 97.3664 194.709 96.6999 193.028C95.9632 191.179 95.6487 189.189 95.7792 187.204C95.8253 185.566 96.3152 183.971 97.1965 182.589C97.8164 181.659 98.7424 180.974 99.8139 180.655C100.1 180.576 100.396 180.537 100.693 180.541C100.9 180.541 101.004 180.541 101.004 180.541C101.004 180.541 100.569 180.541 99.876 180.82C98.893 181.183 98.0592 181.864 97.5069 182.755C96.0999 184.969 95.7068 189.014 97.2069 192.79C97.9051 194.571 98.9981 196.169 100.404 197.466C101.555 198.527 102.882 199.381 104.325 199.991C105.679 200.526 107.087 200.911 108.525 201.139Z" fill="#263238"/>
<path d="M132.64 202.029C132.382 198.856 132.299 195.672 132.392 192.49C132.311 189.311 132.408 186.13 132.682 182.962C132.941 186.131 133.024 189.312 132.93 192.49C133.017 195.673 132.92 198.857 132.64 202.029Z" fill="#263238"/>
<path d="M94.6929 180.613C94.8067 178.306 95.0446 175.699 95.0446 175.699C95.0446 175.699 100.755 175.068 101.097 169.171C101.438 163.274 101.097 149.67 101.097 149.67L90.7512 144.373L79.2676 153.405L81.0367 182.889L91.5685 183.562C92.3735 183.584 93.1545 183.286 93.7402 182.734C94.3259 182.181 94.6685 181.418 94.6929 180.613Z" fill="#FFBE9D"/>
<path d="M95.7171 164.505C95.7171 164.505 95.7171 164.619 95.624 164.754C95.547 164.851 95.4475 164.929 95.3339 164.979C95.2204 165.029 95.0962 165.052 94.9722 165.043C94.3101 165.043 93.6687 164.278 93.4411 163.388C93.3329 162.957 93.3329 162.505 93.4411 162.074C93.4623 161.886 93.5302 161.706 93.6386 161.551C93.747 161.395 93.8925 161.269 94.0618 161.184C94.201 161.127 94.3572 161.127 94.4963 161.184C94.5995 161.236 94.6831 161.319 94.7343 161.422C94.8067 161.598 94.7343 161.712 94.7343 161.702C94.7343 161.691 94.7343 161.598 94.6308 161.495C94.5767 161.421 94.4972 161.369 94.4075 161.35C94.3178 161.331 94.2241 161.346 94.1446 161.391C94.0177 161.468 93.9122 161.576 93.8381 161.704C93.7639 161.832 93.7234 161.978 93.7204 162.126C93.6333 162.511 93.6333 162.91 93.7204 163.295C93.9273 164.102 94.486 164.754 94.9826 164.816C95.0797 164.829 95.1786 164.822 95.2729 164.795C95.3672 164.768 95.455 164.723 95.5309 164.661C95.655 164.578 95.6964 164.495 95.7171 164.505Z" fill="#EB996E"/>
<path d="M104.645 146.483C103.849 143.773 100.962 142.428 98.3345 141.683C94.3308 140.545 90.0064 140.048 86.0957 141.486C82.1851 142.924 77.4882 145.449 77.4882 149.763C75.1812 149.577 73.8569 151.594 72.9465 154.098C72.3645 155.623 72.0157 157.227 71.912 158.857C71.6223 164.505 70.0394 172.306 66.3771 176.444C64.308 178.751 61.4423 180.344 60.2629 183.22C59.2283 185.714 59.7663 188.673 58.8041 191.197C57.9455 193.421 56.0522 195.004 54.6659 196.939C53.2536 199.133 52.4224 201.651 52.2505 204.255C52.0785 206.859 52.5715 209.465 53.6831 211.826C54.8026 214.127 56.3789 216.175 58.3158 217.847C60.2528 219.519 62.5098 220.779 64.9494 221.551C69.7819 223.021 74.9351 223.071 79.7953 221.696C83.4429 220.823 86.8455 219.136 89.7477 216.761C92.7173 214.336 94.7568 210.959 95.5206 207.201C96.2551 202.98 95.0757 198.687 94.1963 194.487C91.4444 181.213 92.2307 180.52 95.7068 168.199C95.7895 167.981 95.8309 167.754 95.893 167.537C95.9551 167.319 95.9861 167.216 96.0275 167.05C96.1262 166.563 96.1782 166.068 96.1827 165.571C95.6749 165.76 95.1239 165.8 94.5942 165.686C94.0646 165.572 93.5784 165.31 93.1928 164.93C92.8063 164.524 92.5368 164.021 92.413 163.475C92.2891 162.928 92.3155 162.358 92.4893 161.826C92.7334 161.243 93.0971 160.718 93.5569 160.285C94.0167 159.852 94.5623 159.521 95.1585 159.312C96.3068 158.836 97.5379 158.588 98.6656 158.06C101.055 156.922 102.711 154.563 103.838 152.091C104.765 150.377 105.052 148.389 104.645 146.483Z" fill="#263238"/>
<path d="M96.1309 164.785C96.3495 165.108 96.53 165.455 96.6689 165.819C96.9792 166.471 97.3931 167.392 97.8483 168.457L97.931 168.654H97.7138L96.6792 168.747C95.9654 168.747 95.3653 168.882 94.6618 168.871C94.6006 168.857 94.5438 168.828 94.4968 168.787C94.4498 168.745 94.414 168.692 94.3929 168.633C94.3621 168.539 94.3621 168.438 94.3929 168.344C94.4168 168.204 94.4479 168.066 94.486 167.93L94.6722 167.195C94.7658 166.705 94.9114 166.227 95.1067 165.767C95.0874 166.267 95.0146 166.763 94.8894 167.247L94.7446 167.981C94.6929 168.23 94.5998 168.613 94.7446 168.581C95.2619 168.581 95.9964 168.468 96.6792 168.426L97.7138 168.333L97.5793 168.561C97.1344 167.526 96.762 166.554 96.5447 165.881C96.3542 165.538 96.2147 165.168 96.1309 164.785Z" fill="#4CAF4F"/>
<path d="M60.7077 251.863L106.59 250.467L126.557 328.41L122.885 417.816H98.6242L101.593 330.314L83.8508 276.051L86.582 421.282L62.063 421.644L59.487 285.135C59.3732 281.338 58.1317 272.782 58.5972 269.016L60.7077 251.863Z" fill="#263238"/>
<path d="M89.9546 277.158C89.2036 277.205 88.4496 277.16 87.7096 277.024C86.3233 276.858 84.4301 276.568 82.3506 276.155C80.2712 275.741 78.409 275.265 77.0641 274.882C76.3451 274.724 75.6496 274.474 74.9949 274.137C74.9949 273.982 78.3676 274.789 82.5058 275.627C86.644 276.465 89.9753 277.003 89.9546 277.158Z" fill="#455A64"/>
<path d="M122.636 412.913C122.636 413.057 117.143 413.182 110.366 413.182C103.59 413.182 98.0862 413.057 98.0862 412.913C98.0862 412.768 103.58 412.644 110.366 412.644C117.153 412.644 122.636 412.757 122.636 412.913Z" fill="#455A64"/>
<path d="M86.3647 417.506C86.3647 417.661 81.0264 417.775 74.4466 417.775C67.8669 417.775 62.5389 417.661 62.5389 417.506C62.5389 417.351 67.8772 417.237 74.4466 417.237C81.0161 417.237 86.3647 417.361 86.3647 417.506Z" fill="#455A64"/>
<path d="M83.199 417.134C83.0541 417.134 82.4127 385.404 81.7609 346.267C81.1092 307.129 80.7264 275.379 80.8609 275.379C80.9954 275.379 81.6575 307.098 82.2989 346.256C82.9403 385.414 83.3541 417.134 83.199 417.134Z" fill="#455A64"/>
<path d="M119.377 412.913C119.366 412.771 119.366 412.63 119.377 412.488V411.247C119.377 410.13 119.46 408.526 119.522 406.488C119.667 402.35 119.874 396.339 120.133 388.973C120.691 374.158 121.478 353.736 122.336 331.193C122.336 330.976 122.336 330.769 122.336 330.583V330.655C116.905 308.929 111.991 289.211 108.421 274.944L104.283 258.071C103.807 256.095 103.445 254.553 103.187 253.477C103.062 252.97 102.98 252.577 102.907 252.277C102.867 252.142 102.843 252.004 102.835 251.863C102.889 251.994 102.93 252.129 102.959 252.267C103.042 252.556 103.145 252.95 103.29 253.446C103.569 254.481 103.973 256.053 104.49 258.019C105.525 262.012 106.983 267.764 108.804 274.851C112.404 289.107 117.37 308.774 122.874 330.531V330.603C122.874 330.79 122.874 331.007 122.874 331.214C121.953 353.757 121.115 374.169 120.505 388.983C120.184 396.36 119.915 402.329 119.729 406.488C119.626 408.557 119.543 410.13 119.491 411.247C119.491 411.775 119.429 412.188 119.419 412.488C119.42 412.631 119.406 412.773 119.377 412.913Z" fill="#455A64"/>
<path d="M111.463 328.762C109.72 329.335 107.925 329.733 106.104 329.952C103.869 330.334 101.966 330.603 101.107 330.645V330.438C101.386 330.521 101.531 330.572 101.531 330.614C101.531 330.655 101.355 330.614 101.066 330.614H100.445L101.066 330.427C101.873 330.19 103.776 329.796 106.011 329.393C107.803 329.004 109.629 328.793 111.463 328.762Z" fill="#455A64"/>
<path d="M111.039 331.731C109.425 331.805 107.808 331.732 106.208 331.514C104.592 331.481 102.982 331.304 101.397 330.986C104.63 330.722 107.885 330.974 111.039 331.731Z" fill="#455A64"/>
<path opacity="0.2" d="M60.5112 253.508C61.0546 254.206 61.739 254.781 62.5198 255.197C63.3006 255.612 64.1602 255.858 65.0425 255.919C66.8904 256.138 68.7596 256.103 70.5981 255.815C82.4438 254.501 94.9929 253.291 106.59 250.467C91.5789 251.305 75.7191 251.025 60.7077 251.863L60.5525 253.146" fill="black"/>
<g opacity="0.2">
<path d="M75.9778 274.665L84.4405 307.502L83.8508 276.051L75.9778 274.665Z" fill="black"/>
</g>
</svg>
